<svg width="703" height="675" viewBox="0 0 703 675" fill="none" xmlns="http://www.w3.org/2000/svg">
<path d="M703 1275.96C820.141 1275.23 935.207 1252.47 1037.94 1196.18C1145.87 1137.06 1257.2 1063.11 1301.25 948.21C1344.61 835.101 1296.39 711.615 1268.95 593.628C1243.72 485.137 1207.34 383.663 1148.02 289.39C1079.74 180.891 1023.3 39.0208 899.347 6.3048C775.26 -26.4482 665.421 91.5468 542.875 129.663C422.936 166.968 284.176 148.303 186.987 227.873C83.4595 312.633 3.88649 440.206 0.207495 573.954C-3.38451 704.542 102.174 806.481 167.966 919.341C226.81 1020.28 268.145 1135.56 365.369 1200.36C463.319 1265.65 585.288 1276.69 703 1275.96Z" fill="#234FC0"/>
</svg>
