<svg width="743" height="580" viewBox="0 0 743 580" fill="none" xmlns="http://www.w3.org/2000/svg">
<path d="M-0.000183105 568.235C104.871 554.2 189.284 488.795 284.568 442.796C395.18 389.397 526.375 370.71 604.865 276.233C693.185 169.924 751.604 31.2668 740.94 -106.531C730.035 -247.451 665.336 -396.807 546.821 -473.823C432.047 -548.408 279.093 -466.353 144.994 -493.803C27.4698 -517.86 -63.0372 -624.285 -182.993 -623.217C-320.148 -621.996 -474.589 -592.695 -562.61 -487.504C-650.506 -382.461 -642.08 -226.735 -628.826 -90.4121C-617.515 25.9249 -543.16 119.565 -493.311 225.288C-444.194 329.458 -432.686 460.389 -338.123 526.129C-242.938 592.301 -114.902 583.612 -0.000183105 568.235Z" fill="#1B3B91"/>
</svg>
