<svg id="svg" version="1.1" xmlns="http://www.w3.org/2000/svg" xmlns:xlink="http://www.w3.org/1999/xlink" width="400" height="400" viewBox="0, 0, 400,400"><g id="svgg"><path id="path0" d="M258.800 33.040 C 249.958 34.683,246.617 35.887,241.607 39.238 C 213.882 57.783,219.378 102.345,250.577 111.965 C 284.565 122.446,313.989 92.168,302.412 58.626 C 298.418 47.057,287.683 37.345,275.368 34.163 C 271.499 33.163,261.709 32.499,258.800 33.040 M268.000 46.828 C 290.691 50.508,298.071 81.692,279.403 95.013 C 258.740 109.758,233.020 90.652,239.579 65.429 C 242.726 53.326,255.702 44.833,268.000 46.828 M329.589 58.530 C 322.053 60.200,316.878 68.042,318.412 75.467 C 321.328 89.586,339.905 91.901,346.249 78.936 C 351.436 68.333,341.311 55.931,329.589 58.530 M326.400 108.642 C 300.014 113.430,285.825 138.778,295.181 164.414 C 305.025 191.386,342.627 198.355,362.804 176.947 C 382.271 156.291,374.421 120.532,348.315 110.945 C 342.847 108.938,331.401 107.735,326.400 108.642 M340.400 123.158 C 361.505 129.819,365.421 159.320,346.800 171.372 C 327.413 183.921,303.694 167.043,307.771 143.600 C 310.420 128.368,325.993 118.611,340.400 123.158 M259.792 134.138 C 249.165 137.595,245.984 150.806,253.873 158.719 C 265.221 170.100,284.173 156.881,277.476 142.254 C 274.534 135.827,266.266 132.032,259.792 134.138 M27.100 173.022 C 26.935 173.193,26.800 217.323,26.800 271.089 L 26.800 368.845 57.700 368.692 C 91.103 368.528,90.935 368.537,100.691 366.200 C 132.357 358.613,149.774 327.876,139.960 296.896 C 134.885 280.874,124.628 270.500,108.627 265.204 L 105.854 264.286 107.427 263.050 C 119.420 253.626,124.628 242.236,124.549 225.600 C 124.403 194.883,107.420 177.194,74.600 173.577 C 69.907 173.060,27.540 172.565,27.100 173.022 M257.360 183.354 C 214.414 190.399,211.588 251.860,253.702 262.892 C 257.733 263.948,269.459 264.173,273.200 263.267 C 293.674 258.306,305.608 242.441,304.691 221.404 C 303.609 196.567,282.121 179.292,257.360 183.354 M75.200 194.577 C 87.690 197.263,94.220 201.356,98.996 209.492 C 107.098 223.295,103.534 244.315,91.791 251.980 C 83.547 257.362,78.609 258.479,62.100 258.697 L 48.800 258.873 48.800 226.503 C 48.800 208.700,48.935 193.991,49.100 193.818 C 49.664 193.225,71.923 193.872,75.200 194.577 M272.000 197.968 C 293.452 205.279,296.527 235.259,277.000 246.705 C 257.267 258.271,233.967 239.978,239.189 217.018 C 242.511 202.414,258.244 193.280,272.000 197.968 M330.541 208.807 C 322.835 209.912,316.946 218.120,318.363 225.784 C 320.954 239.798,339.801 242.452,346.085 229.687 C 351.240 219.217,342.242 207.130,330.541 208.807 M196.939 265.216 C 188.389 266.737,181.853 272.589,178.762 281.490 C 176.885 286.894,176.714 288.462,176.516 302.090 L 176.326 315.180 170.263 315.290 L 164.200 315.400 164.200 320.400 L 164.200 325.400 170.457 325.510 L 176.714 325.620 177.008 333.059 C 177.891 355.434,176.475 365.435,171.755 370.155 C 164.109 377.802,150.156 372.113,148.588 360.710 L 148.309 358.682 143.505 358.924 C 137.778 359.212,138.171 358.922,138.751 362.432 C 142.644 386.008,173.288 391.763,183.312 370.800 C 186.744 363.622,187.182 360.247,187.192 340.900 L 187.200 325.600 193.000 325.600 L 198.800 325.600 198.800 320.400 L 198.800 315.200 192.558 315.200 L 186.315 315.200 186.511 302.900 C 186.771 286.617,187.773 282.436,192.417 278.261 C 200.226 271.239,213.588 277.079,215.058 288.156 L 215.318 290.111 218.920 289.856 C 220.902 289.715,223.148 289.600,223.913 289.600 L 225.303 289.600 225.025 287.100 C 223.534 273.691,209.735 262.939,196.939 265.216 M77.200 278.795 C 91.781 279.507,99.820 281.586,107.372 286.599 C 123.301 297.172,125.471 322.550,111.633 336.446 C 102.230 345.889,93.664 348.000,64.758 348.000 L 48.800 348.000 48.800 313.467 C 48.800 294.473,48.920 278.813,49.067 278.667 C 49.462 278.271,68.225 278.357,77.200 278.795 " stroke="none" fill="#fafafc" fill-rule="evenodd"></path><path id="path1" d="M0.000 200.000 L 0.000 400.000 200.000 400.000 L 400.000 400.000 400.000 200.000 L 400.000 0.000 200.000 0.000 L 0.000 0.000 0.000 200.000 M275.368 34.163 C 303.155 41.344,314.226 75.915,296.154 99.071 C 285.987 112.099,267.746 117.260,250.577 111.965 C 219.378 102.345,213.882 57.783,241.607 39.238 C 246.617 35.887,249.958 34.683,258.800 33.040 C 261.709 32.499,271.499 33.163,275.368 34.163 M259.400 47.059 C 235.350 52.163,230.746 85.087,252.400 97.116 C 266.410 104.898,284.377 97.147,288.862 81.386 C 294.406 61.902,278.236 43.062,259.400 47.059 M338.800 59.455 C 348.265 63.691,350.503 75.704,343.207 83.116 C 334.860 91.596,320.851 87.274,318.412 75.467 C 316.079 64.175,328.155 54.691,338.800 59.455 M343.800 109.524 C 366.029 115.811,378.109 137.244,372.265 160.028 C 361.967 200.169,301.985 198.808,293.359 158.237 C 288.262 134.262,302.433 112.991,326.400 108.642 C 329.131 108.147,341.069 108.751,343.800 109.524 M327.727 122.574 C 305.130 127.731,299.715 158.738,319.200 171.408 C 337.930 183.588,361.006 168.208,358.409 145.276 C 356.680 130.019,342.165 119.280,327.727 122.574 M270.007 134.843 C 281.756 140.311,281.565 156.441,269.687 161.909 C 259.575 166.564,247.599 157.033,249.612 145.932 C 251.329 136.468,261.552 130.909,270.007 134.843 M74.600 173.577 C 107.420 177.194,124.403 194.883,124.549 225.600 C 124.628 242.236,119.420 253.626,107.427 263.050 L 105.854 264.286 108.627 265.204 C 124.628 270.500,134.885 280.874,139.960 296.896 C 149.774 327.876,132.357 358.613,100.691 366.200 C 90.935 368.537,91.103 368.528,57.700 368.692 L 26.800 368.845 26.800 271.089 C 26.800 217.323,26.935 173.193,27.100 173.022 C 27.540 172.565,69.907 173.060,74.600 173.577 M273.400 183.755 C 306.974 191.007,316.326 235.064,288.817 256.383 C 276.314 266.072,254.708 266.533,240.986 257.402 C 226.613 247.838,220.233 228.868,225.398 211.047 C 231.157 191.174,252.243 179.185,273.400 183.755 M49.100 193.818 C 48.935 193.991,48.800 208.700,48.800 226.503 L 48.800 258.873 62.100 258.697 C 89.808 258.331,101.683 250.050,103.150 230.074 C 104.578 210.613,95.367 198.914,75.200 194.577 C 71.923 193.872,49.664 193.225,49.100 193.818 M258.470 197.360 C 231.520 204.183,232.196 243.782,259.366 249.807 C 278.294 254.005,294.299 235.140,288.761 215.158 C 285.277 202.584,270.991 194.190,258.470 197.360 M337.200 209.290 C 345.564 211.788,349.945 221.847,346.085 229.687 C 341.627 238.743,329.629 240.807,322.576 233.731 C 311.795 222.916,322.564 204.918,337.200 209.290 M206.000 265.666 C 215.740 267.966,223.923 277.186,225.025 287.100 L 225.303 289.600 223.913 289.600 C 223.148 289.600,220.902 289.715,218.920 289.856 L 215.318 290.111 215.058 288.156 C 213.588 277.079,200.226 271.239,192.417 278.261 C 187.773 282.436,186.771 286.617,186.511 302.900 L 186.315 315.200 192.558 315.200 L 198.800 315.200 198.800 320.400 L 198.800 325.600 193.000 325.600 L 187.200 325.600 187.192 340.900 C 187.182 360.247,186.744 363.622,183.312 370.800 C 173.288 391.763,142.644 386.008,138.751 362.432 C 138.171 358.922,137.778 359.212,143.505 358.924 L 148.309 358.682 148.588 360.710 C 150.156 372.113,164.109 377.802,171.755 370.155 C 176.475 365.435,177.891 355.434,177.008 333.059 L 176.714 325.620 170.457 325.510 L 164.200 325.400 164.200 320.400 L 164.200 315.400 170.263 315.290 L 176.326 315.180 176.516 302.090 C 176.714 288.462,176.885 286.894,178.762 281.490 C 183.031 269.195,193.988 262.829,206.000 265.666 M49.067 278.667 C 48.920 278.813,48.800 294.473,48.800 313.467 L 48.800 348.000 64.758 348.000 C 81.864 348.000,86.586 347.704,93.246 346.217 C 111.916 342.046,122.397 327.806,120.439 309.274 C 118.731 293.107,108.286 283.181,89.600 279.967 C 82.457 278.738,50.035 277.698,49.067 278.667 " stroke="none" fill="#0404ec" fill-rule="evenodd"></path></g></svg>