<svg width="163" height="56" viewBox="0 0 163 56" fill="none" xmlns="http://www.w3.org/2000/svg">
<path fill-rule="evenodd" clip-rule="evenodd" d="M143.58 0.0770313C141.384 0.47588 139.716 1.78109 138.698 3.89822C137.952 5.44834 138.106 8.43044 139.005 9.84819C139.11 10.0129 139.223 10.2194 139.257 10.3061C139.37 10.5941 140.343 11.5678 140.927 11.9774C143.16 13.5439 146.803 13.4551 148.887 11.7834C149.812 11.0417 150.692 9.87104 150.917 9.08456C150.971 8.89483 151.068 8.55506 151.132 8.32868C151.764 6.09815 151.011 3.23462 149.418 1.81472C149.257 1.6707 149.009 1.44821 148.868 1.31972C148.726 1.19079 148.549 1.06618 148.473 1.04203C148.398 1.01788 148.189 0.904482 148.008 0.790217C147.043 0.181379 144.904 -0.163141 143.58 0.0770313ZM145.725 2.49123C148.445 3.23201 149.787 6.64056 148.216 8.81892C148.095 8.98579 147.997 9.15568 147.997 9.19664C147.997 9.23717 147.875 9.36869 147.726 9.48899C147.577 9.60886 147.315 9.82057 147.143 9.95898C146.257 10.673 144.921 10.9167 143.593 10.6058C142.258 10.2932 140.965 8.6818 140.785 7.10452C140.445 4.12889 142.994 1.74786 145.725 2.49123ZM154.978 4.24195C152.431 5.2643 153.042 8.91949 155.759 8.91949C158.402 8.91949 159.146 5.51008 156.763 4.32517C156.279 4.08457 155.464 4.04663 154.978 4.24195ZM154.544 12.1516C153.269 12.3819 151.835 13.1084 151.123 13.885C149.127 16.0634 148.663 18.8458 149.848 21.5287C150.506 23.0206 151.905 24.2542 153.624 24.8609C154.411 25.1381 157.023 25.1537 157.88 24.8859C162.309 23.5009 163.867 17.8485 160.813 14.2446C160.508 13.885 160.234 13.5905 160.205 13.5905C160.175 13.5905 159.923 13.4193 159.645 13.2098C158.467 12.3215 156.206 11.8524 154.544 12.1516ZM157.149 14.6391C157.398 14.7348 157.802 14.9582 158.047 15.1358C158.293 15.3139 158.512 15.4592 158.536 15.4592C158.558 15.4592 158.765 15.7011 158.993 15.9973C161.623 19.3973 157.989 24.2046 154.157 22.3975C152.375 21.5571 151.604 20.0643 151.837 17.9049C152.104 15.4325 154.837 13.7521 157.149 14.6391ZM143.819 16.3553C142.627 16.7959 141.974 18.362 142.498 19.5258C143.567 21.9025 147.123 21.2031 147.149 18.6108C147.167 16.8481 145.514 15.7288 143.819 16.3553ZM111.022 20.6323C109.098 20.8172 107.261 21.5865 106.366 22.5808C105.512 23.5294 105.348 23.7916 105.045 24.6833C104.536 26.1812 104.465 27.069 104.464 31.932L104.464 35.7924L103.543 35.8127L102.623 35.8329L102.604 37.4676L102.584 39.1026H103.524H104.464V47.2594V55.4158H106.269H108.074V47.2603V39.1044L110.474 39.0858L112.874 39.0669L112.894 37.5305C112.907 36.4582 112.889 35.9649 112.831 35.8959C112.764 35.8157 112.307 35.7967 110.408 35.7967H108.068L108.089 31.4309C108.113 26.4688 108.099 26.596 108.747 25.6466C110.112 23.6458 114.284 23.6596 115.592 25.6694C115.974 26.2558 116.162 27.0941 116.21 28.4126L116.25 29.5445H118.009H119.769V28.2246C119.769 23.9675 118.329 21.8801 114.679 20.8474C113.969 20.6465 112.049 20.5335 111.022 20.6323ZM143.268 24.1148C142.649 24.2106 141.64 24.606 141.242 24.9078C141.111 25.0074 140.967 25.0889 140.921 25.0889C140.554 25.0889 139.121 26.8921 138.667 27.9274C137.938 29.584 138.119 32.4199 139.043 33.8532C139.163 34.0399 139.261 34.2249 139.261 34.2646C139.261 34.4095 140.307 35.4827 140.77 35.813C142.618 37.1302 145.272 37.4079 147.563 36.524C148.838 36.0324 150.599 34.2318 150.887 33.1267C150.921 32.9943 151.016 32.6601 151.098 32.3833C151.958 29.4667 150.729 26.3135 148.141 24.8009C146.888 24.0683 145.148 23.8229 143.268 24.1148ZM0 39.7476V55.4248L5.07145 55.3963C10.6597 55.3657 10.6692 55.3648 12.7782 54.7875C13.2383 54.6616 14.7898 53.9109 15.1606 53.6353C15.6657 53.2593 16.4112 52.5712 16.5797 52.3258C16.6741 52.1874 16.8807 51.9123 17.0388 51.7148C20.4604 47.4284 18.2881 40.0883 13.1971 38.7339L12.858 38.6438L13.0888 38.5049C13.4016 38.3165 14.4004 37.2778 14.6166 36.916C15.3239 35.7324 15.4916 35.2965 15.6705 34.1797C16.2024 30.8561 15.1009 27.4458 13.0537 26.0785C12.8822 25.9638 12.6769 25.8125 12.5976 25.7422C12.2203 25.4067 10.9399 24.838 9.85441 24.5228C8.58568 24.1546 8.3717 24.139 4.06088 24.1037L0 24.0705V39.7476ZM145.867 26.4701C149.2 27.5593 149.939 31.8328 147.152 33.8986C145.254 35.306 142.981 34.8886 141.358 32.8353C140.747 32.0609 140.591 30.1689 141.034 28.8964C141.691 27.0095 143.988 25.8561 145.867 26.4701ZM8.5184 27.8114C11.0368 28.5013 12.3974 30.3765 12.2509 32.955C12.056 36.3847 10.0808 37.7369 5.26709 37.7369H3.68172V32.6286V27.5203L5.68509 27.5523C7.66464 27.5833 7.69799 27.5863 8.5184 27.8114ZM154.953 28.2526C153.778 28.7161 153.122 29.9765 153.434 31.173C154.074 33.6286 157.706 33.479 158.165 30.9777C158.494 29.1801 156.624 27.5929 154.953 28.2526ZM46.8294 28.8739C46.803 28.9002 46.7813 30.4675 46.7813 32.357V35.7927L45.7885 35.8126L44.7957 35.8328L44.7767 37.4675L44.7572 39.1025H45.769H46.7813V47.2593V55.4157H48.5859H50.3909V47.2593V39.1025H52.0888H53.7868L53.7673 37.4675L53.7478 35.8328L52.0694 35.8134L50.3909 35.794V32.31V28.826H48.6339C47.668 28.826 46.8558 28.8476 46.8294 28.8739ZM57.8751 28.8739C57.8487 28.9002 57.827 30.4675 57.827 32.3574V35.7927L56.7983 35.8126L55.7695 35.8328L55.75 37.4675L55.7305 39.1025H56.7788H57.827V47.2593V55.4157H59.5956H61.3642V47.2593V39.1025H63.0982H64.8326L64.8131 37.4675L64.7936 35.8328L63.0791 35.8134L61.3642 35.794V32.31V28.826H59.6437C58.6973 28.826 57.9016 28.8476 57.8751 28.8739ZM126.17 28.8739C126.143 28.9002 126.122 30.4675 126.122 32.3574V35.7927L125.093 35.8126L124.064 35.8328L124.045 37.4675L124.026 39.1025H125.074H126.122V47.2593V55.4157H127.891H129.659V47.2593V39.1025H131.393H133.127L133.108 37.4675L133.089 35.8328L131.374 35.8134L129.659 35.794V32.31V28.826H127.939C126.992 28.826 126.197 28.8476 126.17 28.8739ZM31.5486 35.4401C29.4421 35.6078 27.5821 36.2929 26.5031 37.298C26.3684 37.4235 26.1648 37.5921 26.0505 37.6732C25.3747 38.1522 24.0436 40.1659 23.6161 41.3555C22.8724 43.4252 22.6662 46.45 23.1275 48.5167C23.238 49.0108 23.3571 49.5503 23.3922 49.7154C23.7902 51.5747 25.9963 54.1506 27.8451 54.9142C28.0356 54.9932 28.273 55.1014 28.3722 55.1549C30.1889 56.1332 33.9942 56.2669 36.1015 55.4265C37.524 54.8591 38.2669 54.4115 39.2199 53.5474C39.7548 53.0627 40.7468 51.9002 40.9287 51.5449C41.0023 51.4014 41.1799 51.1064 41.3229 50.89C41.656 50.3872 41.6521 50.3531 41.2406 50.1496C41.0521 50.056 40.6865 49.8555 40.4284 49.7038C39.7617 49.3114 38.7603 48.8043 38.6511 48.8043C38.6004 48.8043 38.406 49.0841 38.2184 49.4261C38.0313 49.7676 37.7454 50.1966 37.5829 50.379C37.4209 50.5614 37.223 50.7912 37.1437 50.8904C37.064 50.9891 36.7556 51.2664 36.4576 51.5061C34.2792 53.2606 30.982 53.2658 28.9137 51.5182C28.4601 51.1353 28.2158 50.8775 27.661 50.1979C27.1672 49.593 26.6591 48.089 26.5291 46.8458L26.4784 46.3608H34.1029H41.7279L41.7274 45.5523C41.7257 43.2566 41.0937 40.7808 40.1676 39.4406C40.0333 39.2457 39.9229 39.059 39.9229 39.025C39.9229 38.8978 38.8378 37.7128 38.3371 37.2933C36.6642 35.8915 34.2285 35.2266 31.5486 35.4401ZM75.2977 35.4401C68.7254 35.964 65.2129 42.0929 67.1448 49.6667C67.6637 51.7024 69.7061 54.1364 71.5262 54.8884C71.6748 54.9501 71.9914 55.0893 72.2297 55.1984C74.5921 56.2803 77.9734 56.2656 80.4801 55.1631C82.101 54.4499 84.0498 52.7704 84.6778 51.545C84.7515 51.4014 84.9291 51.1064 85.072 50.89C85.4051 50.3872 85.4012 50.3532 84.9897 50.1496C84.8013 50.0561 84.4357 49.8556 84.1775 49.7038C83.5109 49.3114 82.5094 48.8043 82.4003 48.8043C82.3496 48.8043 82.1534 49.0872 81.9641 49.433C81.7748 49.7788 81.5032 50.1915 81.3603 50.3493C81.2178 50.5075 81.0337 50.7253 80.9509 50.8335C80.1691 51.8606 78.3 52.7359 76.735 52.8088C74.5319 52.911 72.9842 52.1521 71.4123 50.1984C70.9124 49.577 70.4078 48.0864 70.2783 46.8459L70.2276 46.3608H77.8521H85.477L85.4766 45.5523C85.4749 43.2899 84.7952 40.6152 83.9306 39.4661C83.8284 39.3298 83.7444 39.1811 83.7444 39.1354C83.7444 38.9879 82.6299 37.7487 82.0906 37.2968C80.4112 35.8898 77.9833 35.2258 75.2977 35.4401ZM97.7137 35.4417C96.6074 35.5629 95.9559 35.8134 95.2707 36.3813C95.0389 36.5736 94.8228 36.731 94.7899 36.731C94.7569 36.731 94.5733 36.9492 94.381 37.2161L94.0318 37.7012L93.9959 36.7668L93.9595 35.8328L92.2091 35.8134L90.4583 35.794V45.6048V55.4157H92.2234H93.9881L94.0162 49.2894C94.0466 42.7021 94.0318 42.9785 94.4338 41.3667C94.9956 39.115 97.7284 37.9448 99.3887 39.2448C99.7266 39.5096 99.8059 39.4501 100.226 38.6174C100.44 38.1927 100.783 37.5287 100.988 37.1419C101.192 36.7551 101.36 36.3813 101.36 36.3106C101.36 35.8565 99.021 35.299 97.7137 35.4417ZM116.28 35.8445C116.253 35.8713 116.231 40.2853 116.231 45.6541V55.4157H118H119.769V45.6062V35.7967H118.048C117.102 35.7967 116.306 35.8182 116.28 35.8445ZM33.6781 38.683C34.0155 38.755 34.8437 39.119 35.4662 39.4682C36.5188 40.0594 37.9707 42.2511 37.9729 43.2528L37.9733 43.4145H32.3786C29.3015 43.4145 26.7835 43.4063 26.7835 43.3964C26.7835 43.3864 26.8459 43.1678 26.9217 42.9113C27.8356 39.8257 30.6832 38.0436 33.6781 38.683ZM77.4275 38.683C77.7667 38.7555 78.5884 39.1168 79.2265 39.4738C79.5851 39.6748 80.6247 40.7135 80.8383 41.0848C81.1523 41.6302 81.5677 42.5331 81.6491 42.8462C81.6946 43.0204 81.7479 43.2196 81.7682 43.2886C81.8029 43.4076 81.5023 43.4145 76.1688 43.4145C73.0691 43.4145 70.5329 43.4063 70.5329 43.3964C70.5329 43.3864 70.5949 43.1678 70.6711 42.9113C71.5807 39.8322 74.437 38.0449 77.4275 38.683ZM8.91301 41.118C12.2774 41.4353 14.0564 42.5539 14.7849 44.809C15.1527 45.9469 15.0158 47.9851 14.5064 48.9609C14.1564 49.6309 12.6906 51.1039 12.3735 51.1039C12.3289 51.1039 12.085 51.1962 11.8312 51.3083C10.5755 51.8654 9.76417 51.9727 6.47908 52.0167L3.68172 52.0542V46.5488V41.043H5.90167C7.12232 41.043 8.47768 41.0766 8.91301 41.118Z" fill="#1F45A8"/>
</svg>