<svg width="12" height="12" viewBox="0 0 12 12" fill="none" xmlns="http://www.w3.org/2000/svg">
<path d="M0.219319 10.7199C0.0786884 10.8606 -0.000290991 11.0514 -0.000244104 11.2503C-0.000197217 11.4493 0.0788721 11.64 0.219569 11.7807C0.360267 11.9213 0.551067 12.0003 0.749996 12.0002C0.948925 12.0002 1.13969 11.9211 1.28032 11.7804L5.91132 7.14992C5.92293 7.13828 5.93672 7.12905 5.95191 7.12275C5.9671 7.11644 5.98338 7.1132 5.99982 7.1132C6.01626 7.1132 6.03254 7.11644 6.04773 7.12275C6.06291 7.12905 6.07671 7.13828 6.08832 7.14992L10.7193 11.7814C10.789 11.8511 10.8716 11.9064 10.9626 11.9441C11.0536 11.9818 11.1511 12.0012 11.2496 12.0012C11.3481 12.0013 11.4457 11.9819 11.5367 11.9442C11.6277 11.9065 11.7104 11.8513 11.7801 11.7817C11.8497 11.712 11.905 11.6294 11.9427 11.5384C11.9804 11.4474 11.9999 11.3498 11.9999 11.2513C11.9999 11.1529 11.9805 11.0553 11.9429 10.9643C11.9052 10.8733 11.85 10.7906 11.7803 10.7209L7.14982 6.08842C7.13818 6.07681 7.12894 6.06302 7.12264 6.04783C7.11634 6.03265 7.1131 6.01637 7.1131 5.99992C7.1131 5.98348 7.11634 5.9672 7.12264 5.95201C7.12894 5.93683 7.13818 5.92303 7.14982 5.91142L11.7813 1.28042C11.922 1.13959 12.0009 0.948666 12.0007 0.749643C12.0006 0.55062 11.9214 0.359804 11.7806 0.219173C11.6397 0.0785421 11.4488 -0.000384603 11.2498 -0.000243953C11.0508 -0.000103303 10.86 0.0790932 10.7193 0.219923L6.08832 4.84992C6.07671 4.86156 6.06291 4.8708 6.04773 4.8771C6.03254 4.8834 6.01626 4.88665 5.99982 4.88665C5.98338 4.88665 5.9671 4.8834 5.95191 4.8771C5.93672 4.8708 5.92293 4.86156 5.91132 4.84992L1.28032 0.219923C1.21069 0.150257 1.12801 0.0949881 1.03702 0.0572724C0.946027 0.0195568 0.848496 0.000132801 0.749996 0.000109587C0.551067 6.27026e-05 0.360267 0.0790421 0.219569 0.219673C0.078872 0.360304 -0.000197236 0.551067 -0.00024412 0.749996C-0.000291004 0.948925 0.0786883 1.13973 0.219319 1.28042L4.84982 5.91142C4.86146 5.92303 4.8707 5.93683 4.877 5.95201C4.8833 5.9672 4.88654 5.98348 4.88654 5.99992C4.88654 6.01637 4.8833 6.03265 4.877 6.04783C4.8707 6.06302 4.86146 6.07681 4.84982 6.08842L0.219319 10.7199Z" fill="#2A3863"/>
</svg>
