<svg width="18" height="16" viewBox="0 0 18 16" fill="none" xmlns="http://www.w3.org/2000/svg">
<path d="M14.4928 15.3407H3.50724C2.40123 15.3407 1.56738 14.9505 1.15806 14.2424C0.748845 13.5337 0.828297 12.6161 1.38095 11.6585L6.87383 2.14516C7.42649 1.1875 8.18164 0.660156 8.99999 0.660156C9.81834 0.660156 10.5736 1.1875 11.1262 2.14516L16.619 11.6585C17.1717 12.6162 17.2511 13.5338 16.8419 14.2424C16.4327 14.9505 15.5988 15.3407 14.4927 15.3407H14.4928ZM10.1208 11.9923C10.1208 11.4214 9.65814 10.9587 9.0872 10.9587C8.51626 10.9587 8.05361 11.4214 8.05361 11.9923C8.05361 12.5633 8.51626 13.0259 9.0872 13.0259C9.65814 13.0266 10.1208 12.5633 10.1208 11.9923ZM10.1489 5.77046C10.1489 5.18406 9.67362 4.70875 9.08721 4.70875C8.50081 4.70875 8.0255 5.18406 8.0255 5.77046L8.27651 9.53859H8.28002C8.31659 9.95484 8.66182 10.2825 9.08722 10.2825C9.48097 10.2825 9.80932 10.0033 9.88526 9.6321C9.89159 9.60186 9.89159 9.57022 9.8944 9.53858H9.90144L10.1489 5.77046Z" fill="#8F2923"/>
</svg>
