<svg width="24" height="22" viewBox="0 0 24 22" fill="none" xmlns="http://www.w3.org/2000/svg">
<path d="M24 3.75098C24 2.95533 23.6839 2.19227 23.1213 1.62966C22.5587 1.06705 21.7956 0.750977 21 0.750977H3C2.20435 0.750977 1.44129 1.06705 0.87868 1.62966C0.31607 2.19227 0 2.95533 0 3.75098L0 18.251C0 19.0466 0.31607 19.8097 0.87868 20.3723C1.44129 20.9349 2.20435 21.251 3 21.251H21C21.7956 21.251 22.5587 20.9349 23.1213 20.3723C23.6839 19.8097 24 19.0466 24 18.251V3.75098ZM9.654 2.75098C9.73742 2.59962 9.85992 2.47342 10.0087 2.38553C10.1575 2.29764 10.3272 2.25128 10.5 2.25128C10.6728 2.25128 10.8425 2.29764 10.9913 2.38553C11.1401 2.47342 11.2626 2.59962 11.346 2.75098C11.4422 2.90037 11.4955 3.07334 11.5 3.25098C11.4953 3.42859 11.4421 3.60152 11.346 3.75098C11.2626 3.90233 11.1401 4.02853 10.9913 4.11642C10.8425 4.20431 10.6728 4.25067 10.5 4.25067C10.3272 4.25067 10.1575 4.20431 10.0087 4.11642C9.85992 4.02853 9.73742 3.90233 9.654 3.75098C9.55793 3.60152 9.50467 3.42859 9.5 3.25098C9.50452 3.07334 9.55779 2.90037 9.654 2.75098ZM6.154 2.75098C6.23742 2.59962 6.35992 2.47342 6.50872 2.38553C6.65753 2.29764 6.82718 2.25128 7 2.25128C7.17282 2.25128 7.34247 2.29764 7.49128 2.38553C7.64008 2.47342 7.76258 2.59962 7.846 2.75098C7.94221 2.90037 7.99548 3.07334 8 3.25098C7.99533 3.42859 7.94207 3.60152 7.846 3.75098C7.76258 3.90233 7.64008 4.02853 7.49128 4.11642C7.34247 4.20431 7.17282 4.25067 7 4.25067C6.82718 4.25067 6.65753 4.20431 6.50872 4.11642C6.35992 4.02853 6.23742 3.90233 6.154 3.75098C6.05793 3.60152 6.00467 3.42859 6 3.25098C6.00452 3.07334 6.05779 2.90037 6.154 2.75098ZM2.592 2.84198C2.67058 2.66665 2.798 2.51767 2.95903 2.41286C3.12006 2.30805 3.30787 2.25185 3.5 2.25098C3.67249 2.25276 3.84147 2.29991 3.98996 2.38767C4.13846 2.47544 4.26125 2.60073 4.346 2.75098C4.44221 2.90037 4.49548 3.07334 4.5 3.25098C4.49533 3.42859 4.44207 3.60152 4.346 3.75098C4.26258 3.90233 4.14008 4.02853 3.99128 4.11642C3.84248 4.20431 3.67282 4.25067 3.5 4.25067C3.32718 4.25067 3.15752 4.20431 3.00872 4.11642C2.85992 4.02853 2.73742 3.90233 2.654 3.75098C2.55793 3.60152 2.50467 3.42859 2.5 3.25098C2.50103 3.10963 2.5324 2.97015 2.592 2.84198ZM22 18.251C22 18.5162 21.8946 18.7705 21.7071 18.9581C21.5196 19.1456 21.2652 19.251 21 19.251H3C2.73478 19.251 2.48043 19.1456 2.29289 18.9581C2.10536 18.7705 2 18.5162 2 18.251V5.99998C2 5.93367 2.02634 5.87008 2.07322 5.8232C2.12011 5.77632 2.1837 5.74998 2.25 5.74998H21.75C21.8163 5.74998 21.8799 5.77632 21.9268 5.8232C21.9737 5.87008 22 5.93367 22 5.99998V18.251Z" fill="white"/>
</svg>
