<svg width="24" height="24" viewBox="0 0 24 24" fill="none" xmlns="http://www.w3.org/2000/svg">
<g clip-path="url(#clip0)">
<path d="M23 22H21.25C21.1837 22 21.1201 21.9737 21.0732 21.9268C21.0263 21.8799 21 21.8163 21 21.75V20.75C21 20.6837 21.0263 20.6201 21.0732 20.5732C21.1201 20.5263 21.1837 20.5 21.25 20.5H23C23.2652 20.5 23.5196 20.3946 23.7071 20.2071C23.8946 20.0196 24 19.7652 24 19.5C24 19.2348 23.8946 18.9804 23.7071 18.7929C23.5196 18.6054 23.2652 18.5 23 18.5H1C0.734784 18.5 0.48043 18.6054 0.292893 18.7929C0.105357 18.9804 0 19.2348 0 19.5C0 19.7652 0.105357 20.0196 0.292893 20.2071C0.48043 20.3946 0.734784 20.5 1 20.5H2.75C2.8163 20.5 2.87989 20.5263 2.92678 20.5732C2.97366 20.6201 3 20.6837 3 20.75V21.75C3 21.8163 2.97366 21.8799 2.92678 21.9268C2.87989 21.9737 2.8163 22 2.75 22H1C0.734784 22 0.48043 22.1054 0.292893 22.2929C0.105357 22.4804 0 22.7348 0 23C0 23.2652 0.105357 23.5196 0.292893 23.7071C0.48043 23.8946 0.734784 24 1 24H23C23.2652 24 23.5196 23.8946 23.7071 23.7071C23.8946 23.5196 24 23.2652 24 23C24 22.7348 23.8946 22.4804 23.7071 22.2929C23.5196 22.1054 23.2652 22 23 22ZM19 21.75C19 21.8163 18.9737 21.8799 18.9268 21.9268C18.8799 21.9737 18.8163 22 18.75 22H13.25C13.1837 22 13.1201 21.9737 13.0732 21.9268C13.0263 21.8799 13 21.8163 13 21.75V20.75C13 20.6837 13.0263 20.6201 13.0732 20.5732C13.1201 20.5263 13.1837 20.5 13.25 20.5H18.75C18.8163 20.5 18.8799 20.5263 18.9268 20.5732C18.9737 20.6201 19 20.6837 19 20.75V21.75ZM5 20.75C5 20.6837 5.02634 20.6201 5.07322 20.5732C5.12011 20.5263 5.1837 20.5 5.25 20.5H10.75C10.8163 20.5 10.8799 20.5263 10.9268 20.5732C10.9737 20.6201 11 20.6837 11 20.75V21.75C11 21.8163 10.9737 21.8799 10.9268 21.9268C10.8799 21.9737 10.8163 22 10.75 22H5.25C5.1837 22 5.12011 21.9737 5.07322 21.9268C5.02634 21.8799 5 21.8163 5 21.75V20.75Z" fill="white"/>
<path d="M8.5 8H16.5C16.6326 8 16.7598 7.94732 16.8536 7.85355C16.9473 7.75979 17 7.63261 17 7.5V1C17 0.734784 16.8946 0.48043 16.7071 0.292893C16.5196 0.105357 16.2652 0 16 0L9 0C8.73478 0 8.48043 0.105357 8.29289 0.292893C8.10536 0.48043 8 0.734784 8 1V7.5C8 7.63261 8.05268 7.75979 8.14645 7.85355C8.24021 7.94732 8.36739 8 8.5 8Z" fill="white"/>
<path d="M12.5 10.5V17C12.5 17.1326 12.5527 17.2598 12.6464 17.3536C12.7402 17.4473 12.8674 17.5 13 17.5H21C21.1326 17.5 21.2598 17.4473 21.3536 17.3536C21.4473 17.2598 21.5 17.1326 21.5 17V10.5C21.5 10.2348 21.3946 9.98043 21.2071 9.79289C21.0196 9.60536 20.7652 9.5 20.5 9.5H13.5C13.2348 9.5 12.9804 9.60536 12.7929 9.79289C12.6054 9.98043 12.5 10.2348 12.5 10.5Z" fill="white"/>
<path d="M2.5 17.5H10.5C10.6326 17.5 10.7598 17.4473 10.8536 17.3536C10.9473 17.2598 11 17.1326 11 17V10.5C11 10.2348 10.8946 9.98043 10.7071 9.79289C10.5196 9.60536 10.2652 9.5 10 9.5H3C2.73478 9.5 2.48043 9.60536 2.29289 9.79289C2.10536 9.98043 2 10.2348 2 10.5V17C2 17.1326 2.05268 17.2598 2.14645 17.3536C2.24021 17.4473 2.36739 17.5 2.5 17.5Z" fill="white"/>
</g>
<defs>
<clipPath id="clip0">
<rect width="24" height="24" fill="white"/>
</clipPath>
</defs>
</svg>
