<svg width="117" height="40" viewBox="0 0 117 40" fill="none" xmlns="http://www.w3.org/2000/svg">
<path fill-rule="evenodd" clip-rule="evenodd" d="M102.878 0.0550218C101.304 0.339911 100.109 1.27219 99.3792 2.78442C98.8447 3.89163 98.9552 6.02168 99.5992 7.03435C99.6743 7.152 99.7556 7.29953 99.7801 7.36143C99.8612 7.56717 100.558 8.26261 100.976 8.55519C102.577 9.67412 105.187 9.61067 106.68 8.4166C107.343 7.88686 107.974 7.05067 108.135 6.4889C108.173 6.35339 108.243 6.11069 108.289 5.949C108.742 4.35577 108.202 2.31042 107.06 1.29622C106.945 1.19335 106.768 1.03443 106.666 0.942644C106.565 0.850556 106.438 0.761547 106.384 0.7443C106.33 0.727053 106.18 0.646052 106.05 0.564435C105.359 0.129555 103.826 -0.116528 102.878 0.0550218ZM104.414 1.77975C106.363 2.30888 107.325 4.74352 106.199 6.29948C106.113 6.41867 106.042 6.54002 106.042 6.56928C106.042 6.59823 105.955 6.69217 105.848 6.77809C105.741 6.86372 105.553 7.01494 105.43 7.1138C104.795 7.62383 103.838 7.79784 102.887 7.57578C101.93 7.35249 101.004 6.20154 100.874 5.07492C100.631 2.94949 102.458 1.24878 104.414 1.77975ZM111.045 3.03016C109.221 3.7604 109.658 6.37122 111.605 6.37122C113.499 6.37122 114.032 3.93596 112.324 3.0896C111.978 2.91775 111.394 2.89064 111.045 3.03016ZM110.732 8.6799C109.818 8.84437 108.79 9.36333 108.28 9.91801C106.85 11.474 106.517 13.4614 107.366 15.3777C107.838 16.4434 108.84 17.3245 110.072 17.7579C110.636 17.9559 112.508 17.967 113.122 17.7757C116.295 16.7865 117.412 12.749 115.223 10.1749C115.005 9.91801 114.809 9.70766 114.787 9.70766C114.766 9.70766 114.586 9.58539 114.387 9.43571C113.542 8.80125 111.922 8.46616 110.732 8.6799ZM112.6 10.4568C112.778 10.5251 113.068 10.6847 113.244 10.8116C113.42 10.9388 113.577 11.0426 113.594 11.0426C113.61 11.0426 113.758 11.2153 113.922 11.4269C115.806 13.8554 113.202 17.2892 110.457 15.9984C109.18 15.3981 108.627 14.3319 108.794 12.7895C108.985 11.0235 110.944 9.82324 112.6 10.4568ZM103.049 11.6816C102.195 11.9964 101.727 13.115 102.102 13.9462C102.868 15.6439 105.417 15.1443 105.435 13.2927C105.448 12.0336 104.264 11.2341 103.049 11.6816ZM79.5483 14.737C78.17 14.8691 76.8534 15.4186 76.2122 16.1288C75.6005 16.8064 75.4825 16.9936 75.2656 17.6305C74.9012 18.7005 74.8503 19.3346 74.8497 22.8081L74.8491 25.5655L74.1895 25.58L73.53 25.5945L73.5163 26.7621L73.5024 27.93H74.1759H74.8491V33.7562V39.5821H76.1424H77.4357V33.7568V27.9312L79.1554 27.918L80.8755 27.9044L80.8894 26.807C80.8991 26.0411 80.8857 25.6887 80.8444 25.6395C80.7963 25.5822 80.4692 25.5686 79.1085 25.5686H77.4316L77.4468 22.4502C77.4642 18.9059 77.454 18.9968 77.918 18.3186C78.8959 16.8895 81.8854 16.8994 82.8227 18.3349C83.0965 18.7538 83.2315 19.3525 83.2653 20.2943L83.2945 21.1028H84.5549H85.8156V20.16C85.8156 17.1193 84.7836 15.6283 82.1688 14.8907C81.6598 14.7471 80.2839 14.6665 79.5483 14.737ZM102.653 17.2251C102.21 17.2935 101.487 17.5759 101.202 17.7915C101.108 17.8627 101.004 17.9209 100.972 17.9209C100.709 17.9209 99.6821 19.2089 99.3562 19.9484C98.8345 21.1317 98.9636 23.1573 99.6256 24.1811C99.7119 24.3144 99.7824 24.4465 99.7824 24.4749C99.7824 24.5784 100.532 25.3449 100.863 25.5809C102.187 26.5218 104.089 26.7201 105.731 26.0887C106.644 25.7376 107.906 24.4515 108.112 23.6621C108.137 23.5675 108.205 23.3288 108.263 23.1311C108.88 21.0479 107.999 18.7956 106.145 17.7151C105.247 17.1919 104 17.0166 102.653 17.2251ZM0 28.3904V39.5882L3.63378 39.5679C7.63783 39.546 7.64465 39.5454 9.15583 39.133C9.48544 39.0431 10.5972 38.5069 10.8629 38.3101C11.2247 38.0415 11.7589 37.55 11.8796 37.3747C11.9473 37.2758 12.0953 37.0793 12.2086 36.9383C14.6602 33.8766 13.1037 28.6337 9.45596 27.6663L9.21294 27.6019L9.37837 27.5028C9.60245 27.3682 10.3182 26.6262 10.473 26.3678C10.9799 25.5224 11.1 25.211 11.2282 24.4133C11.6093 22.0393 10.82 19.6035 9.35323 18.6268C9.23032 18.5449 9.08321 18.4368 9.02641 18.3866C8.75608 18.147 7.83863 17.7408 7.06085 17.5156C6.15179 17.2526 5.99847 17.2415 2.90969 17.2162L0 17.1925V28.3904ZM104.516 18.9071C106.904 19.685 107.434 22.7375 105.437 24.2131C104.077 25.2184 102.448 24.9202 101.285 23.4536C100.847 22.9004 100.735 21.549 101.053 20.6401C101.524 19.2924 103.17 18.4685 104.516 18.9071ZM6.09902 19.8652C7.90349 20.358 8.87836 21.6974 8.77345 23.5392C8.63379 25.989 7.21851 26.9548 3.7694 26.9548H2.63346V23.3061V19.6573L4.0689 19.6801C5.48728 19.7023 5.51118 19.7045 6.09902 19.8652ZM111.028 20.1807C110.186 20.5117 109.716 21.412 109.94 22.2667C110.398 24.0207 113 23.9138 113.329 22.1271C113.565 20.8431 112.225 19.7094 111.028 20.1807ZM33.5542 20.6239C33.5353 20.6427 33.5197 21.7623 33.5197 23.1119V25.5659L32.8084 25.5801L32.097 25.5946L32.0834 26.7621L32.0694 27.93H32.7944H33.5197V33.7562V39.5822H34.8127H36.106V33.7562V27.93H37.3227H38.5393L38.5254 26.7621L38.5114 25.5946L37.3087 25.5807L36.106 25.5668V23.0783V20.5897H34.8472C34.1551 20.5897 33.5731 20.6051 33.5542 20.6239ZM41.4706 20.6239C41.4517 20.6427 41.4361 21.7623 41.4361 23.1122V25.5659L40.699 25.5801L39.9619 25.5946L39.9479 26.7621L39.934 27.93H40.685H41.4361V33.7562V39.5822H42.7034H43.9706V33.7562V27.93H45.213H46.4557L46.4417 26.7621L46.4278 25.5946L45.1993 25.5807L43.9706 25.5668V23.0783V20.5897H42.7378C42.0597 20.5897 41.4895 20.6051 41.4706 20.6239ZM90.4032 20.6239C90.3843 20.6427 90.3688 21.7623 90.3688 23.1122V25.5659L89.6317 25.5801L88.8945 25.5946L88.8809 26.7621L88.8669 27.93H89.618H90.3688V33.7562V39.5822H91.6363H92.9036V33.7562V27.93H94.146H95.3884L95.3744 26.7621L95.3607 25.5946L94.132 25.5807L92.9036 25.5668V23.0783V20.5897H91.6708C90.9926 20.5897 90.4225 20.6051 90.4032 20.6239ZM22.6032 25.3144C21.0939 25.4342 19.7612 25.9236 18.9881 26.6415C18.8915 26.7311 18.7457 26.8515 18.6637 26.9094C18.1796 27.2516 17.2258 28.6899 16.9195 29.5396C16.3866 31.018 16.2388 33.1785 16.5694 34.6547C16.6485 35.0077 16.7339 35.393 16.759 35.5109C17.0442 36.839 18.6249 38.6789 19.9496 39.2243C20.0861 39.2807 20.2562 39.358 20.3273 39.3962C21.629 40.095 24.3556 40.1905 25.8655 39.5902C26.8847 39.1849 27.417 38.8652 28.0998 38.248C28.4831 37.9018 29.1939 37.0715 29.3242 36.8177C29.377 36.7152 29.5042 36.5045 29.6067 36.3499C29.8453 35.9908 29.8425 35.9664 29.5477 35.8211C29.4127 35.7542 29.1507 35.611 28.9658 35.5026C28.4881 35.2223 27.7705 34.8601 27.6923 34.8601C27.656 34.8601 27.5166 35.06 27.3823 35.3043C27.2482 35.5482 27.0433 35.8546 26.927 35.9849C26.8109 36.1152 26.669 36.2794 26.6122 36.3502C26.5551 36.4207 26.3341 36.6188 26.1206 36.79C24.5598 38.0432 22.1973 38.0469 20.7153 36.7986C20.3903 36.5251 20.2153 36.341 19.8177 35.8556C19.4639 35.4235 19.0998 34.3492 19.0067 33.4613L18.9704 33.1148H24.4335H29.8969L29.8965 32.5373C29.8953 30.8976 29.4425 29.1291 28.7789 28.1719C28.6827 28.0327 28.6036 27.8993 28.6036 27.875C28.6036 27.7841 27.8261 26.9378 27.4673 26.6381C26.2687 25.6368 24.5235 25.1619 22.6032 25.3144ZM53.9521 25.3146C49.2429 25.6888 46.7261 30.0665 48.1103 35.4763C48.4821 36.9304 49.9455 38.669 51.2497 39.2061C51.3561 39.2501 51.583 39.3496 51.7537 39.4275C53.4465 40.2003 55.8692 40.1898 57.6653 39.4023C58.8267 38.8929 60.223 37.6932 60.6731 36.8179C60.7258 36.7154 60.8531 36.5047 60.9555 36.3501C61.1942 35.991 61.1914 35.9667 60.8965 35.8213C60.7615 35.7545 60.4996 35.6112 60.3146 35.5028C59.8369 35.2226 59.1194 34.8604 59.0411 34.8604C59.0048 34.8604 58.8642 35.0624 58.7286 35.3094C58.593 35.5564 58.3984 35.8512 58.296 35.9639C58.1938 36.0769 58.0619 36.2325 58.0027 36.3098C57.4424 37.0434 56.1032 37.6686 54.9819 37.7207C53.4033 37.7937 52.2944 37.2516 51.1681 35.8561C50.8099 35.4123 50.4483 34.3476 50.3555 33.4615L50.3192 33.115H55.7823H61.2457L61.2454 32.5375C61.2441 30.9215 60.7572 29.011 60.1377 28.1903C60.0644 28.0929 60.0042 27.9867 60.0042 27.954C60.0042 27.8487 59.2056 26.9635 58.8192 26.6408C57.6159 25.6358 55.8763 25.1615 53.9521 25.3146ZM70.0154 25.315C69.2227 25.4016 68.7559 25.5805 68.2649 25.9862C68.0988 26.1235 67.944 26.2359 67.9204 26.2359C67.8968 26.2359 67.7652 26.3918 67.6274 26.5824L67.3772 26.9289L67.3515 26.2615L67.3254 25.5944L66.0712 25.5805L64.8167 25.5667V32.5743V39.582H66.0814H67.3459L67.3661 35.2061C67.3878 30.501 67.3772 30.6984 67.6652 29.5471C68.0678 27.9388 70.0259 27.1029 71.2155 28.0315C71.4576 28.2206 71.5144 28.1781 71.8155 27.5834C71.9688 27.28 72.2146 26.8057 72.3611 26.5294C72.5076 26.2532 72.6277 25.9862 72.6277 25.9356C72.6277 25.6113 70.952 25.2131 70.0154 25.315ZM83.3171 25.6038C83.2981 25.6229 83.2826 28.7757 83.2826 32.6105V39.5831H84.5499H85.8174V32.5763V25.5696H84.5843C83.9065 25.5696 83.336 25.585 83.3171 25.6038ZM24.1328 27.6306C24.3745 27.682 24.968 27.9419 25.414 28.1914C26.1682 28.6137 27.2085 30.1792 27.2101 30.8946L27.2104 31.0101H23.2017C20.9968 31.0101 19.1926 31.0043 19.1926 30.9972C19.1926 30.9901 19.2373 30.8339 19.2917 30.6507C19.9465 28.4467 21.9869 27.1738 24.1328 27.6306ZM55.4771 27.6307C55.7201 27.6824 56.3089 27.9405 56.766 28.1955C57.023 28.339 57.7679 29.081 57.9209 29.3462C58.1459 29.7358 58.4436 30.3807 58.5019 30.6043C58.5345 30.7287 58.5727 30.871 58.5873 30.9203C58.6121 31.0053 58.3967 31.0102 54.5751 31.0102C52.3542 31.0102 50.537 31.0044 50.537 30.9973C50.537 30.9902 50.5813 30.834 50.636 30.6508C51.2877 28.4514 53.3343 27.1748 55.4771 27.6307ZM6.38176 29.3699C8.79238 29.5966 10.0671 30.3955 10.5891 32.0063C10.8526 32.8191 10.7545 34.2749 10.3895 34.9719C10.1388 35.4505 9.08847 36.5026 8.86129 36.5026C8.82932 36.5026 8.65458 36.5685 8.47271 36.6486C7.57295 37.0465 6.99163 37.1232 4.63781 37.1546L2.63346 37.1814V33.249V29.3163H4.22409C5.0987 29.3163 6.06984 29.3403 6.38176 29.3699Z" fill="white"/>
</svg>
