<svg width="24" height="24" viewBox="0 0 24 24" fill="none" xmlns="http://www.w3.org/2000/svg">
<path d="M16.7731 16.476H16.3001C15.9685 16.476 15.6506 16.6077 15.4162 16.8422C15.1818 17.0766 15.0501 17.3945 15.0501 17.726C15.0501 18.0576 15.1818 18.3755 15.4162 18.6099C15.6506 18.8444 15.9685 18.976 16.3001 18.976H16.7781C18.5403 18.9843 20.2398 18.3223 21.5321 17.124C22.8244 15.9258 23.6127 14.2811 23.7373 12.5232C23.862 10.7653 23.3136 9.0258 22.2033 7.65724C21.093 6.28868 19.5039 5.39347 17.7581 5.15305C17.7 5.14296 17.6474 5.11279 17.6094 5.06782C17.5714 5.02285 17.5504 4.96594 17.5501 4.90705V2.93005C17.55 2.70152 17.4872 2.4774 17.3686 2.28205C17.25 2.0867 17.0802 1.9276 16.8775 1.82203C16.6748 1.71647 16.4471 1.66848 16.219 1.68329C15.991 1.69811 15.7714 1.77515 15.5841 1.90605L10.8061 5.24705C10.5883 5.39952 10.4248 5.61745 10.3393 5.8692C10.2538 6.12094 10.2509 6.39338 10.3308 6.64693C10.4108 6.90049 10.5695 7.12194 10.7839 7.27914C10.9983 7.43633 11.2572 7.52107 11.5231 7.52105H16.2871C19.1161 7.52105 21.2501 9.44605 21.2501 11.999C21.2487 13.186 20.7766 14.324 19.9373 15.1633C19.098 16.0026 17.96 16.4747 16.7731 16.476Z" fill="white"/>
<path d="M6.24699 18.8446C6.30518 18.8543 6.35804 18.8843 6.39613 18.9294C6.43422 18.9744 6.45508 19.0316 6.45499 19.0906V21.0666C6.45475 21.2952 6.51729 21.5196 6.63579 21.7151C6.75429 21.9107 6.92421 22.07 7.12701 22.1756C7.32982 22.2812 7.55773 22.3292 7.7859 22.3142C8.01408 22.2992 8.23375 22.2218 8.42099 22.0906L13.194 18.7506C13.4116 18.5979 13.5748 18.3799 13.6602 18.1281C13.7455 17.8764 13.7484 17.604 13.6685 17.3505C13.5886 17.097 13.43 16.8755 13.2158 16.7182C13.0016 16.5609 12.7428 16.4759 12.477 16.4756H7.71299C4.88399 16.4756 2.74999 14.5506 2.74999 11.9996C2.75078 10.8122 3.22266 9.67375 4.06203 8.83401C4.9014 7.99426 6.03967 7.52188 7.22699 7.52055H7.70499C8.03651 7.52055 8.35445 7.38886 8.58887 7.15444C8.82329 6.92002 8.95499 6.60207 8.95499 6.27055C8.95499 5.93903 8.82329 5.62109 8.58887 5.38667C8.35445 5.15225 8.03651 5.02055 7.70499 5.02055H7.22699C5.46574 5.01418 3.76786 5.6772 2.47701 6.87542C1.18616 8.07365 0.398778 9.71755 0.274233 11.4744C0.149688 13.2312 0.697287 14.9698 1.80619 16.3381C2.91509 17.7065 4.50246 18.6024 6.24699 18.8446Z" fill="white"/>
</svg>
