<svg width="24" height="24" viewBox="0 0 24 24" fill="none" xmlns="http://www.w3.org/2000/svg">
<g clip-path="url(#clip0)">
<path d="M10.7311 20.2109L3.76707 18.7449C3.27892 18.642 2.77282 18.6625 2.29457 18.8044C1.81632 18.9464 1.38102 19.2054 1.02807 19.5579L0.293068 20.2919C0.105295 20.4794 -0.000300495 20.7339 -0.000488031 20.9992C-0.000675567 21.2646 0.10456 21.5192 0.292068 21.7069C0.479576 21.8947 0.733997 22.0003 0.999361 22.0005C1.26472 22.0007 1.51929 21.8954 1.70707 21.7079L2.44107 20.9729C2.55852 20.8554 2.70341 20.769 2.86264 20.7215C3.02187 20.674 3.19042 20.6669 3.35307 20.7009L10.3221 22.1689C10.4602 22.1975 10.6029 22.1962 10.7405 22.1651C10.8782 22.134 11.0075 22.0738 11.12 21.9885C11.2324 21.9033 11.3253 21.795 11.3924 21.6709C11.4595 21.5467 11.4993 21.4097 11.5091 21.2689V21.2489C11.5282 21.0108 11.4597 20.7739 11.3164 20.5828C11.1731 20.3916 10.965 20.2594 10.7311 20.2109Z" fill="white"/>
<path d="M24.0001 1C24.0001 0.734784 23.8948 0.48043 23.7072 0.292893C23.5197 0.105357 23.2653 0 23.0001 0L21.1001 0C20.4177 0.000117113 19.7557 0.232914 19.2233 0.659969C18.691 1.08702 18.3202 1.68281 18.1721 2.349L14.9431 16.9C14.9155 17.0284 14.9136 17.161 14.9376 17.2902C14.9616 17.4193 15.0109 17.5425 15.0828 17.6524C15.1547 17.7623 15.2477 17.8569 15.3564 17.9306C15.4651 18.0044 15.5874 18.0558 15.7161 18.082L15.7431 18.088C15.996 18.1407 16.2594 18.0909 16.4756 17.9495C16.6918 17.8081 16.843 17.5868 16.8961 17.334L20.1291 2.783C20.1769 2.56109 20.2994 2.36229 20.4762 2.21979C20.6529 2.07729 20.8731 1.99971 21.1001 2H23.0001C23.2653 2 23.5197 1.89464 23.7072 1.70711C23.8948 1.51957 24.0001 1.26522 24.0001 1Z" fill="white"/>
<path d="M15 24C16.3807 24 17.5 22.8807 17.5 21.5C17.5 20.1193 16.3807 19 15 19C13.6193 19 12.5 20.1193 12.5 21.5C12.5 22.8807 13.6193 24 15 24Z" fill="white"/>
<path d="M2.75791 16.787L11.4889 18.97C11.6164 19.0019 11.7488 19.0083 11.8788 18.989C12.0087 18.9697 12.1336 18.9249 12.2463 18.8573C12.3589 18.7897 12.4571 18.7006 12.5353 18.595C12.6135 18.4894 12.6701 18.3694 12.7019 18.242L16.0999 4.65997C16.1641 4.40285 16.1235 4.13078 15.9872 3.90353C15.8509 3.67628 15.6299 3.51243 15.3729 3.44797L13.1869 2.89997C13.1553 2.8922 13.1224 2.89075 13.0902 2.8957C13.058 2.90064 13.0271 2.91189 12.9992 2.92879C12.9713 2.9457 12.9471 2.96792 12.9278 2.99421C12.9085 3.02049 12.8946 3.05031 12.8869 3.08197L12.1699 5.93697C12.1492 6.01954 12.1077 6.09544 12.0494 6.15748C11.991 6.21952 11.9179 6.26565 11.8367 6.29149C11.7556 6.31733 11.6692 6.32202 11.5858 6.30513C11.5023 6.28824 11.4246 6.25032 11.3599 6.19497L10.3709 5.34797C10.3414 5.32281 10.3064 5.30483 10.2688 5.29547C10.2311 5.2861 10.1918 5.28558 10.1539 5.29397L8.88291 5.57597C8.79979 5.59432 8.71335 5.59115 8.6318 5.56675C8.55024 5.54235 8.47627 5.49753 8.41688 5.43654C8.35749 5.37555 8.31466 5.30041 8.29244 5.21824C8.27022 5.13606 8.26935 5.04957 8.28991 4.96697L8.99991 2.11397C9.01602 2.04942 9.00596 1.98112 8.97191 1.92397C8.93711 1.86761 8.88197 1.82679 8.81791 1.80997L6.63791 1.26497C6.38079 1.20083 6.10873 1.24136 5.88148 1.37768C5.65423 1.51399 5.49038 1.73493 5.42591 1.99197L2.02991 15.574C1.99802 15.7014 1.99155 15.8339 2.01088 15.9638C2.03021 16.0938 2.07496 16.2187 2.14257 16.3313C2.21018 16.444 2.29932 16.5422 2.4049 16.6204C2.51049 16.6985 2.63044 16.7552 2.75791 16.787Z" fill="white"/>
</g>
<defs>
<clipPath id="clip0">
<rect width="24" height="24" fill="white"/>
</clipPath>
</defs>
</svg>
