<svg width="12" height="12" viewBox="0 0 12 12" fill="none" xmlns="http://www.w3.org/2000/svg">
<path opacity="0.2" d="M9.26851 0.00888784C9.66089 0.00888782 9.98322 0.331571 9.98322 0.724378L9.98322 9.5178L10.768 8.73219C11.006 8.49388 11.3842 8.43744 11.6786 8.61988C12.071 8.87244 12.0989 9.40549 11.7908 9.71393L9.6888 11.8176C9.45075 12.056 9.08628 12.056 8.84823 11.8176L6.76109 9.72823C6.45299 9.4198 6.49513 8.88674 6.87327 8.63418C7.15346 8.45175 7.54584 8.50818 7.78389 8.74649L8.56865 9.53211L8.56865 0.724378C8.55442 0.317336 8.87675 0.00888786 9.26858 0.00888784L9.26851 0.00888784ZM2.2922 0.177073L0.204498 2.26649C-0.103599 2.57493 -0.0614589 3.10798 0.316683 3.36054C0.596873 3.54297 0.989252 3.48654 1.2273 3.24823L2.01206 2.46262L2.01206 11.2845C2.01206 11.6773 2.33439 12 2.72677 12C3.11915 12 3.44148 11.6773 3.44148 11.2845L3.44148 2.47678L4.22623 3.2624C4.46428 3.50071 4.84243 3.55714 5.13685 3.3747C5.52923 3.12215 5.55714 2.58909 5.24904 2.28066L3.1619 0.191238C2.90852 -0.0613214 2.53038 -0.0613204 2.29233 0.176995L2.2922 0.177073Z" fill="white"/>
</svg>
