<svg width="24" height="24" viewBox="0 0 24 24" fill="none" xmlns="http://www.w3.org/2000/svg">
<path d="M15.9731 8.27101C16.0167 8.25113 16.0537 8.21911 16.0797 8.17877C16.1056 8.13843 16.1194 8.09148 16.1194 8.04351C16.1194 7.99555 16.1056 7.9486 16.0797 7.90826C16.0537 7.86792 16.0167 7.8359 15.9731 7.81601L6.21608 3.36801C6.15217 3.33962 6.08302 3.32495 6.01308 3.32495C5.94315 3.32495 5.874 3.33962 5.81008 3.36801L1.99308 5.02401C1.94799 5.04323 1.90953 5.07527 1.8825 5.11616C1.85548 5.15706 1.84106 5.205 1.84106 5.25401C1.84106 5.30303 1.85548 5.35097 1.8825 5.39186C1.90953 5.43276 1.94799 5.4648 1.99308 5.48401L12.2831 9.77201C12.3466 9.7986 12.4149 9.81179 12.4837 9.81076C12.5525 9.80973 12.6204 9.7945 12.6831 9.76601L15.9731 8.27101Z" fill="white"/>
<path d="M22.062 5.49997C22.1059 5.48022 22.1432 5.44818 22.1694 5.40774C22.1956 5.36729 22.2095 5.32014 22.2095 5.27197C22.2095 5.2238 22.1956 5.17666 22.1694 5.13621C22.1432 5.09576 22.1059 5.06373 22.062 5.04397L12.4 0.846974C12.2739 0.79191 12.1377 0.763489 12 0.763489C11.8624 0.763489 11.7262 0.79191 11.6 0.846974L8.38002 2.24697C8.3358 2.2666 8.29823 2.29864 8.27185 2.3392C8.24548 2.37976 8.23145 2.4271 8.23145 2.47547C8.23145 2.52385 8.24548 2.57119 8.27185 2.61175C8.29823 2.65231 8.3358 2.68435 8.38002 2.70397L18.08 7.12597C18.145 7.15554 18.2156 7.17084 18.287 7.17084C18.3584 7.17084 18.429 7.15554 18.494 7.12597L22.062 5.49997Z" fill="white"/>
<path d="M0.846 6.63001C0.807998 6.6142 0.766683 6.60802 0.72572 6.61202C0.684758 6.61602 0.645416 6.63007 0.611186 6.65292C0.576957 6.67577 0.548899 6.70672 0.529503 6.74302C0.510107 6.77932 0.499973 6.81985 0.5 6.86101V18.007C0.499984 18.2044 0.558372 18.3973 0.667811 18.5616C0.77725 18.7258 0.932846 18.854 1.115 18.93L11.4 23.217C11.438 23.2328 11.4793 23.239 11.5203 23.235C11.5612 23.231 11.6006 23.2169 11.6348 23.1941C11.669 23.1712 11.6971 23.1403 11.7165 23.104C11.7359 23.0677 11.746 23.0272 11.746 22.986V11.34C11.7459 11.2906 11.7312 11.2424 11.7038 11.2013C11.6765 11.1602 11.6375 11.1281 11.592 11.109L0.846 6.63001Z" fill="white"/>
<path d="M13.25 22.944C13.2502 22.9857 13.2608 23.0267 13.2809 23.0633C13.3009 23.0999 13.3298 23.1309 13.3648 23.1535C13.3999 23.1761 13.44 23.1897 13.4816 23.1929C13.5232 23.1961 13.5649 23.189 13.603 23.172L22.914 18.94C23.0887 18.8606 23.2368 18.7325 23.3408 18.5711C23.4447 18.4098 23.4999 18.2219 23.5 18.03V6.88601C23.5 6.8442 23.4896 6.80305 23.4696 6.76633C23.4496 6.72961 23.4208 6.69848 23.3856 6.6758C23.3505 6.65312 23.3103 6.6396 23.2686 6.6365C23.2269 6.63339 23.1851 6.64078 23.147 6.65801L13.4 11.09C13.3562 11.1096 13.3189 11.1414 13.2928 11.1817C13.2667 11.222 13.2529 11.269 13.253 11.317L13.25 22.944Z" fill="white"/>
</svg>
