<svg width="16" height="16" viewBox="0 0 16 16" fill="none" xmlns="http://www.w3.org/2000/svg">
<path d="M7.47374 15.9812V13.8481C5.65752 13.6877 4.01818 12.691 3.04085 11.1506C2.06248 9.61013 1.85745 7.7019 2.48403 5.9877C3.11165 4.27435 4.50008 2.95045 6.2404 2.40572C7.98063 1.86202 9.87608 2.15887 11.3663 3.21082C12.8568 4.26174 13.7737 5.9481 13.8455 7.77082C13.9184 9.59456 13.1388 11.3485 11.7368 12.5151V9.60074H9.60526V14.9335C9.60526 15.2168 9.71767 15.4876 9.91751 15.6875C10.1174 15.8875 10.388 16 10.6711 16H16V13.8669H13.4261C15.2402 12.1859 16.1737 9.75913 15.9563 7.29381C15.7377 4.82951 14.3919 2.60476 12.3113 1.26732C10.2307 -0.0689824 7.64951 -0.366867 5.31916 0.461169C2.98983 1.28817 1.17351 3.14832 0.400277 5.49925C-0.371994 7.84898 -0.015008 10.4248 1.36927 12.4755C2.7525 14.5263 5.00681 15.821 7.47358 15.9812L7.47374 15.9812Z" fill="#2A3863"/>
</svg>
