<svg width="24" height="24" viewBox="0 0 24 24" fill="none" xmlns="http://www.w3.org/2000/svg">
<g clip-path="url(#clip0)">
<path d="M20.15 4.04C20.0372 4.01698 19.9359 3.95576 19.863 3.86668C19.7901 3.77759 19.7502 3.66609 19.75 3.551V2C19.75 1.46957 19.5393 0.960859 19.1642 0.585786C18.7891 0.210714 18.2804 0 17.75 0L5.25 0C4.45435 0 3.69129 0.31607 3.12868 0.87868C2.56607 1.44129 2.25 2.20435 2.25 3V21C2.25 21.7956 2.56607 22.5587 3.12868 23.1213C3.69129 23.6839 4.45435 24 5.25 24H19.75C20.2804 24 20.7891 23.7893 21.1642 23.4142C21.5393 23.0391 21.75 22.5304 21.75 22V6C21.7501 5.53894 21.5909 5.09201 21.2993 4.73484C21.0078 4.37767 20.6017 4.13221 20.15 4.04ZM17.25 13.293C17.2499 13.3423 17.2352 13.3905 17.2078 13.4315C17.1804 13.4724 17.1415 13.5044 17.0959 13.5233C17.0504 13.5422 17.0003 13.5473 16.9519 13.5378C16.9035 13.5283 16.859 13.5047 16.824 13.47L14.924 11.57C14.8768 11.5235 14.8133 11.4974 14.747 11.4974C14.6807 11.4974 14.6172 11.5235 14.57 11.57L12.67 13.47C12.635 13.5047 12.5905 13.5283 12.5421 13.5378C12.4937 13.5473 12.4436 13.5422 12.3981 13.5233C12.3525 13.5044 12.3136 13.4724 12.2862 13.4315C12.2588 13.3905 12.2441 13.3423 12.244 13.293V5.75C12.244 5.6837 12.2703 5.62011 12.3172 5.57322C12.3641 5.52634 12.4277 5.5 12.494 5.5H17C17.0663 5.5 17.1299 5.52634 17.1768 5.57322C17.2237 5.62011 17.25 5.6837 17.25 5.75V13.293ZM17.75 3.75C17.75 3.8163 17.7237 3.87989 17.6768 3.92678C17.6299 3.97366 17.5663 4 17.5 4H5.25C4.98478 4 4.73043 3.89464 4.54289 3.70711C4.35536 3.51957 4.25 3.26522 4.25 3C4.25 2.73478 4.35536 2.48043 4.54289 2.29289C4.73043 2.10536 4.98478 2 5.25 2H17.5C17.5663 2 17.6299 2.02634 17.6768 2.07322C17.7237 2.12011 17.75 2.1837 17.75 2.25V3.75Z" fill="white"/>
</g>
<defs>
<clipPath id="clip0">
<rect width="24" height="24" fill="white"/>
</clipPath>
</defs>
</svg>
