<svg width="18" height="19" viewBox="0 0 18 19" fill="none" xmlns="http://www.w3.org/2000/svg">
<path d="M17.5611 15.4486L14.0795 11.9648C15.1396 10.377 15.5715 8.45133 15.2913 6.56246C15.011 4.67359 14.0386 2.95656 12.5633 1.74534C11.0879 0.534125 9.21499 -0.084666 7.3089 0.00933161C5.40281 0.103329 3.59981 0.903395 2.2506 2.2539C0.901397 3.60441 0.102459 5.4088 0.00919252 7.31609C-0.0840737 9.22338 0.535001 11.0972 1.746 12.573C2.95699 14.0489 4.67332 15.0213 6.56114 15.301C8.44895 15.5808 10.3733 15.1479 11.9598 14.0866L15.4414 17.5696C15.7249 17.8463 16.1052 18.0012 16.5012 18.0012C16.8973 18.0012 17.2776 17.8463 17.5611 17.5696C17.8421 17.2883 18 16.9068 18 16.5091C18 16.1113 17.8421 15.7299 17.5611 15.4486ZM7.69413 2.25908C8.76891 2.25908 9.81955 2.57798 10.7132 3.17546C11.6068 3.77294 12.3034 4.62216 12.7147 5.61574C13.1259 6.60931 13.2336 7.70261 13.0239 8.75738C12.8142 9.81215 12.2967 10.781 11.5367 11.5415C10.7767 12.3019 9.80841 12.8198 8.75428 13.0296C7.70016 13.2394 6.60753 13.1317 5.61456 12.7202C4.6216 12.3086 3.77289 11.6117 3.17578 10.7175C2.57866 9.8233 2.25996 8.77201 2.25996 7.69658C2.26154 6.25495 2.83458 4.87282 3.85334 3.85344C4.8721 2.83405 6.25338 2.26067 7.69413 2.25908Z" fill="#2A3863"/>
</svg>
