<svg width="24" height="24" viewBox="0 0 24 24" fill="none" xmlns="http://www.w3.org/2000/svg">
<path d="M14.531 23.375C15.7736 23.375 16.781 22.3676 16.781 21.125C16.781 19.8824 15.7736 18.875 14.531 18.875C13.2884 18.875 12.281 19.8824 12.281 21.125C12.281 22.3676 13.2884 23.375 14.531 23.375Z" fill="#617193"/>
<path d="M4.53101 23.375C5.77365 23.375 6.78101 22.3676 6.78101 21.125C6.78101 19.8824 5.77365 18.875 4.53101 18.875C3.28837 18.875 2.28101 19.8824 2.28101 21.125C2.28101 22.3676 3.28837 23.375 4.53101 23.375Z" fill="#617193"/>
<path d="M22.469 0.625H19.407C18.9832 0.626191 18.5741 0.780622 18.2552 1.0598C17.9364 1.33898 17.7292 1.72406 17.672 2.144L15.9 15.408C15.8918 15.468 15.8622 15.523 15.8166 15.5629C15.771 15.6028 15.7126 15.6248 15.652 15.625H1.53101C1.19949 15.625 0.881543 15.7567 0.647122 15.9911C0.412702 16.2255 0.281006 16.5435 0.281006 16.875C0.281006 17.2065 0.412702 17.5245 0.647122 17.7589C0.881543 17.9933 1.19949 18.125 1.53101 18.125H16.531C16.9549 18.1236 17.364 17.9692 17.683 17.69C18.002 17.4109 18.2094 17.0259 18.267 16.606L20.035 3.342C20.0428 3.28199 20.0721 3.22687 20.1176 3.18694C20.1631 3.147 20.2215 3.12498 20.282 3.125H22.469C22.8005 3.125 23.1185 2.9933 23.3529 2.75888C23.5873 2.52446 23.719 2.20652 23.719 1.875C23.719 1.54348 23.5873 1.22554 23.3529 0.991117C23.1185 0.756696 22.8005 0.625 22.469 0.625Z" fill="#617193"/>
</svg>
