<svg width="25" height="25" viewBox="0 0 25 25" fill="none" xmlns="http://www.w3.org/2000/svg">
<g clip-path="url(#clip0)">
<path d="M24.1667 10.9688C24.402 10.9208 24.6134 10.793 24.7653 10.6069C24.9171 10.4209 25 10.1881 25 9.948V5.72925C25 5.31485 24.8354 4.91742 24.5424 4.62439C24.2493 4.33137 23.8519 4.16675 23.4375 4.16675H1.5625C1.1481 4.16675 0.750671 4.33137 0.457646 4.62439C0.16462 4.91742 2.17142e-08 5.31485 2.17142e-08 5.72925V9.948C-4.89897e-05 10.1881 0.0828715 10.4209 0.234728 10.6069C0.386584 10.793 0.598049 10.9208 0.833333 10.9688C1.18655 11.0406 1.50411 11.2322 1.7322 11.5112C1.9603 11.7903 2.0849 12.1397 2.0849 12.5001C2.0849 12.8605 1.9603 13.2098 1.7322 13.4889C1.50411 13.768 1.18655 13.9596 0.833333 14.0313C0.598049 14.0794 0.386584 14.2072 0.234728 14.3932C0.0828715 14.5792 -4.89897e-05 14.812 2.17142e-08 15.0522V19.2709C2.17142e-08 19.6853 0.16462 20.0827 0.457646 20.3758C0.750671 20.6688 1.1481 20.8334 1.5625 20.8334H23.4375C23.8519 20.8334 24.2493 20.6688 24.5424 20.3758C24.8354 20.0827 25 19.6853 25 19.2709V15.0522C25 14.812 24.9171 14.5792 24.7653 14.3932C24.6134 14.2072 24.402 14.0794 24.1667 14.0313C23.8135 13.9596 23.4959 13.768 23.2678 13.4889C23.0397 13.2098 22.9151 12.8605 22.9151 12.5001C22.9151 12.1397 23.0397 11.7903 23.2678 11.5112C23.4959 11.2322 23.8135 11.0406 24.1667 10.9688ZM5.46875 19.0105C5.31423 19.0105 5.16319 18.9647 5.03471 18.8788C4.90623 18.793 4.8061 18.671 4.74697 18.5282C4.68784 18.3855 4.67237 18.2284 4.70251 18.0768C4.73266 17.9253 4.80706 17.7861 4.91632 17.6768C5.02558 17.5676 5.16479 17.4932 5.31634 17.463C5.46788 17.4329 5.62497 17.4483 5.76772 17.5075C5.91048 17.5666 6.03249 17.6667 6.11834 17.7952C6.20418 17.9237 6.25 18.0747 6.25 18.2292C6.25 18.4364 6.16769 18.6352 6.02118 18.7817C5.87466 18.9282 5.67595 19.0105 5.46875 19.0105ZM5.46875 15.1907C5.31423 15.1907 5.16319 15.1449 5.03471 15.059C4.90623 14.9732 4.8061 14.8512 4.74697 14.7084C4.68784 14.5657 4.67237 14.4086 4.70251 14.257C4.73266 14.1055 4.80706 13.9663 4.91632 13.857C5.02558 13.7478 5.16479 13.6734 5.31634 13.6432C5.46788 13.6131 5.62497 13.6285 5.76772 13.6877C5.91048 13.7468 6.03249 13.8469 6.11834 13.9754C6.20418 14.1039 6.25 14.2549 6.25 14.4095C6.25 14.6167 6.16769 14.8154 6.02118 14.9619C5.87466 15.1084 5.67595 15.1907 5.46875 15.1907ZM5.46875 11.372C5.31423 11.372 5.16319 11.3261 5.03471 11.2403C4.90623 11.1544 4.8061 11.0324 4.74697 10.8897C4.68784 10.7469 4.67237 10.5898 4.70251 10.4383C4.73266 10.2867 4.80706 10.1475 4.91632 10.0383C5.02558 9.92902 5.16479 9.85461 5.31634 9.82447C5.46788 9.79432 5.62497 9.80979 5.76772 9.86893C5.91048 9.92806 6.03249 10.0282 6.11834 10.1567C6.20418 10.2851 6.25 10.4362 6.25 10.5907C6.25 10.7979 6.16769 10.9966 6.02118 11.1431C5.87466 11.2896 5.67595 11.372 5.46875 11.372ZM5.46875 7.55216C5.31423 7.55216 5.16319 7.50634 5.03471 7.4205C4.90623 7.33466 4.8061 7.21264 4.74697 7.06989C4.68784 6.92713 4.67237 6.77005 4.70251 6.6185C4.73266 6.46695 4.80706 6.32775 4.91632 6.21849C5.02558 6.10923 5.16479 6.03482 5.31634 6.00468C5.46788 5.97453 5.62497 5.99 5.76772 6.04913C5.91048 6.10826 6.03249 6.2084 6.11834 6.33688C6.20418 6.46535 6.25 6.6164 6.25 6.77091C6.25 6.97811 6.16769 7.17683 6.02118 7.32334C5.87466 7.46985 5.67595 7.55216 5.46875 7.55216ZM17.7083 16.9272C17.3478 16.9272 16.9954 16.8203 16.6956 16.6199C16.3958 16.4196 16.1621 16.1349 16.0242 15.8018C15.8862 15.4688 15.8501 15.1022 15.9204 14.7486C15.9908 14.395 16.1644 14.0702 16.4193 13.8152C16.6743 13.5603 16.9991 13.3867 17.3527 13.3164C17.7063 13.246 18.0728 13.2821 18.4059 13.4201C18.739 13.5581 19.0237 13.7917 19.224 14.0915C19.4243 14.3913 19.5312 14.7437 19.5312 15.1042C19.531 15.5876 19.3388 16.0511 18.997 16.3929C18.6552 16.7347 18.1917 16.9269 17.7083 16.9272ZM19.2708 9.11466H9.89583C9.68863 9.11466 9.48992 9.03235 9.34341 8.88584C9.19689 8.73933 9.11458 8.54061 9.11458 8.33341C9.11458 8.12621 9.19689 7.9275 9.34341 7.78099C9.48992 7.63447 9.68863 7.55216 9.89583 7.55216H19.2708C19.478 7.55216 19.6767 7.63447 19.8233 7.78099C19.9698 7.9275 20.0521 8.12621 20.0521 8.33341C20.0521 8.54061 19.9698 8.73933 19.8233 8.88584C19.6767 9.03235 19.478 9.11466 19.2708 9.11466Z" fill="white"/>
</g>
<defs>
<clipPath id="clip0">
<rect width="25" height="25" fill="white"/>
</clipPath>
</defs>
</svg>
