<svg width="20" height="18" viewBox="0 0 20 18" fill="none" xmlns="http://www.w3.org/2000/svg">
<path d="M12.3587 1.62167C11.7852 0.618561 10.7184 0 9.56255 0C8.40672 0 7.3399 0.618561 6.76637 1.62167L0.471915 12.6394C-0.162031 13.748 -0.156546 15.1104 0.484 16.2146C1.12453 17.3199 2.30565 18 3.58243 18H15.5427C16.8194 18 18.0005 17.3199 18.6411 16.2146C19.2817 15.1104 19.2872 13.748 18.6532 12.6394L12.3587 1.62167ZM15.5427 15.7497H3.58238C3.10775 15.7497 2.66827 15.497 2.42874 15.0861C2.19032 14.6752 2.18813 14.1686 2.42435 13.7555L8.7188 2.73776C8.8913 2.43453 9.21321 2.24664 9.5626 2.24664C9.91199 2.24664 10.2339 2.43452 10.4064 2.73776L16.7009 13.7555C16.9371 14.1686 16.9349 14.6751 16.6965 15.0861C16.4569 15.497 16.0175 15.7497 15.5428 15.7497H15.5427Z" fill="#B36200"/>
<path d="M8.4375 6.18652H10.6876V10.1243H8.4375V6.18652Z" fill="#B36200"/>
<path d="M10.6876 12.9368C10.6876 14.4365 8.4375 14.4365 8.4375 12.9368C8.4375 11.4371 10.6876 11.4371 10.6876 12.9368Z" fill="#B36200"/>
</svg>
